PathFileType	4	(X/Y/Z)	C:\Users\Basilio\Documents\Thesis Gigler\squatting_fais\c3dfiles\019\SLS_front_pre1\markers_experimental.trc
DataRate	CameraRate	NumFrames	NumMarkers	Units	OrigDataRate	OrigDataStartFrame	OrigNumFrames
200.000000	200.000000	4	59	mm	200.000000	611	1631
Frame#	Time	LBHD			RBHD			C7			T10			CLAV			LSHO			LUUPA			LMUPA			LDUPA			LLEP			LMEP			LRAD			LUL			LRFIN			RSHO			RUPA1			RMUPA			RDUPA			RLEP			RRAD			RUL			RUFIN			LASI			RASI			USACR			LSACR			RSACR			LTHI1			LTHI2			LTHI3			LTHI4			LLFC			LTIB1			LTIB2			LTIB3			LTIB4			LLMAL			LMMAL			LHEE			LMT1			LMT2			LMT5			RTHI			RTHI3			RTHI4			RLFC			RTIB1			RTIB2			RTIB3			RTIB4			RLMAL			RMMAL			RHEE			RMT1			RMT2			RMT5			FHD			RTHI2			RMEP			
		X1	Y1	Z1	X2	Y2	Z2	X3	Y3	Z3	X4	Y4	Z4	X5	Y5	Z5	X6	Y6	Z6	X7	Y7	Z7	X8	Y8	Z8	X9	Y9	Z9	X10	Y10	Z10	X11	Y11	Z11	X12	Y12	Z12	X13	Y13	Z13	X14	Y14	Z14	X15	Y15	Z15	X16	Y16	Z16	X17	Y17	Z17	X18	Y18	Z18	X19	Y19	Z19	X20	Y20	Z20	X21	Y21	Z21	X22	Y22	Z22	X23	Y23	Z23	X24	Y24	Z24	X25	Y25	Z25	X26	Y26	Z26	X27	Y27	Z27	X28	Y28	Z28	X29	Y29	Z29	X30	Y30	Z30	X31	Y31	Z31	X32	Y32	Z32	X33	Y33	Z33	X34	Y34	Z34	X35	Y35	Z35	X36	Y36	Z36	X37	Y37	Z37	X38	Y38	Z38	X39	Y39	Z39	X40	Y40	Z40	X41	Y41	Z41	X42	Y42	Z42	X43	Y43	Z43	X44	Y44	Z44	X45	Y45	Z45	X46	Y46	Z46	X47	Y47	Z47	X48	Y48	Z48	X49	Y49	Z49	X50	Y50	Z50	X51	Y51	Z51	X52	Y52	Z52	X53	Y53	Z53	X54	Y54	Z54	X55	Y55	Z55	X56	Y56	Z56	X57	Y57	Z57	X58	Y58	Z58	X59	Y59	Z59	

612	3.055	-334.5226440429688	1526.319580078125	-776.031188964844	-340.4750061035157	1520.609497070313	-636.3627319335939	-382.5903015136719	1365.075561523438	-692.4147949218751	-498.4336547851564	1104.721923828125	-700.5462036132814	-218.0390014648438	1301.607177734375	-767.4321899414064	-305.7084045410157	1363.349975585938	-830.2661132812502	-187.8738250732422	1330.86376953125	-888.9653930664065	-163.7268371582032	1318.080078125	-848.4001464843752	-122.4576187133789	1322.357543945313	-892.114685058594	-53.64798736572267	1292.098999023438	-929.0015258789065	-59.41312789916994	1232.9462890625	-921.1716918945315	191.5870361328125	1263.946655273438	-832.717468261719	191.7682189941407	1275.927001953125	-903.0600585937502	262.3679504394532	1279.131469726563	-828.121520996094	-288.0223388671876	1349.81103515625	-577.5772705078126	-174.6958465576172	1279.283935546875	-478.2915649414064	-150.2325439453125	1303.072875976563	-512.5503540039064	-105.798454284668	1271.77880859375	-478.9607543945314	-29.71195220947266	1266.76513671875	-492.806121826172	198.6340942382813	1269.881958007813	-602.9516601562501	217.4101104736329	1277.025512695313	-537.5590820312501	285.8372497558594	1281.123046875	-611.9166870117189	-422.7214660644532	883.3584594726565	-833.7444458007815	-405.6338195800782	860.5946044921877	-628.8959350585939	-548.5140991210939	975.8694458007815	-712.4342651367189	-564.8952026367189	948.056091308594	-740.3679809570314	-559.8842163085939	945.1094360351565	-683.1198120117189	-374.1555175781251	707.7686767578126	-938.3403930664065	-290.7349243164063	687.9089965820314	-942.9951171875002	-263.3899841308594	722.7425537109376	-924.180114746094	-266.1703796386719	631.7147827148439	-939.927429199219	-202.5497283935547	561.7964477539064	-930.510925292969	-108.4617309570313	446.8191223144532	-912.3345336914065	-157.2897033691407	391.3543395996095	-960.857604980469	-118.7064056396485	396.8239135742189	-941.5781250000002	-95.78845977783205	318.4836730957032	-911.5362548828127	-132.9069976806641	178.000717163086	-935.0863037109377	-108.7690200805664	187.224594116211	-856.8637695312502	-189.4739074707032	140.3223419189453	-877.2893066406252	25.17771530151368	125.9710845947266	-878.3613281250002	26.39958953857423	123.6040573120117	-917.8327636718752	-20.77732849121094	94.91937255859376	-962.297302246094	-401.6820068359376	698.0935058593751	-556.5182495117189	-321.7436218261719	706.7511596679689	-589.1582031250001	-305.1622009277344	609.1138916015626	-572.1977539062501	-244.6951751708985	470.5906982421876	-622.0457763671876	-240.1924591064454	301.6506347656251	-705.0145874023439	-311.2171936035157	232.7418518066407	-653.4129638671876	-282.2729492187501	226.7093048095704	-690.5023193359376	-306.7714843750001	197.0518493652344	-735.9060668945314	-386.4781799316407	125.8389434814453	-694.0148925781251	-371.1391906738282	138.243408203125	-770.4578857421877	-455.9229736328126	105.7299194335938	-748.6370849609376	-257.5362243652344	57.44370269775392	-779.309997558594	-248.0391845703126	59.2753143310547	-731.4483032226564	-291.2056579589844	47.85141372680665	-678.4464721679689	-206.3888854980469	1550.963500976563	-632.0678710937501	-338.3740844726563	682.1744995117189	-569.8052368164064	-41.34259033203126	1207.061767578125	-503.085174560547	
613	3.06	-334.2544860839844	1525.080200195313	-775.9485473632815	-340.4245605468751	1519.616455078125	-636.2033081054689	-382.0724792480469	1363.947509765625	-692.3477172851564	-498.6134643554689	1103.779174804688	-700.5116577148439	-217.9203796386719	1300.45751953125	-767.5048217773439	-305.1341247558594	1362.327026367188	-829.734558105469	-187.706771850586	1329.892333984375	-888.8587036132815	-163.5196990966797	1316.872680664063	-848.1902465820315	-122.3030624389649	1321.345947265625	-891.9869384765627	-53.56460571289064	1291.158569335938	-928.8656005859377	-59.3121795654297	1232.09033203125	-921.065856933594	191.9717712402344	1263.29833984375	-832.6971435546877	192.0581359863282	1275.128295898438	-902.9317626953127	262.4701843261719	1278.209350585938	-827.7686767578127	-287.3350524902344	1348.624633789063	-576.9020996093751	-174.3897094726563	1278.21142578125	-477.862274169922	-149.8896484375	1302.039306640625	-512.5317382812501	-105.6848526000977	1270.859497070313	-478.4973449707032	-29.45797920227051	1265.713989257813	-492.7980957031251	198.8925476074219	1269.176391601563	-603.0534667968751	218.0224151611329	1275.901489257813	-537.5386962890626	285.0472106933594	1280.093627929688	-612.2839965820314	-423.3394165039064	882.4017333984377	-833.759704589844	-405.9467163085939	859.7303466796877	-628.8919067382814	-548.9370117187501	975.0706176757815	-712.3368530273439	-566.3962402343751	947.518737792969	-740.3342895507814	-560.1518554687501	944.241882324219	-683.2496948242189	-374.5838623046876	707.0903320312501	-938.419860839844	-291.0402832031251	687.3521728515626	-943.1233520507815	-263.5442504882813	722.2188110351564	-924.302917480469	-266.3025817871094	631.1962280273439	-940.0520629882815	-202.5398712158204	561.4166259765626	-930.6340332031252	-108.3528137207032	446.5668945312501	-912.5479736328127	-157.1520385742188	391.0899658203126	-961.0481567382815	-118.755241394043	396.6027221679689	-941.7473754882815	-95.89485931396486	318.2222595214844	-911.589782714844	-132.778076171875	177.7265777587891	-935.1469726562502	-108.6521377563477	186.9661712646485	-856.9379882812502	-189.4888916015625	140.1076202392578	-877.3699951171877	25.28690338134766	125.8272171020508	-878.5236816406252	26.41902923583985	123.4355087280274	-917.9722290039065	-20.48307037353516	94.50239562988283	-962.5419921875002	-401.9023742675782	697.3900146484376	-556.4693603515626	-321.9979858398438	706.2296142578126	-589.0879516601564	-305.1055908203126	608.5528564453126	-572.0691528320314	-244.312728881836	470.3667297363282	-622.0333862304689	-239.8891143798829	301.4049682617188	-705.0122070312501	-311.0399475097657	232.6872711181641	-653.4367675781251	-282.1114196777344	226.5407257080079	-690.5142211914064	-306.6696472167969	196.9417114257813	-735.9379272460939	-385.9323120117189	125.9415435791016	-693.5382690429689	-371.0235900878907	138.1814117431641	-770.4250488281252	-456.2367248535157	105.686637878418	-748.6303100585939	-257.4961853027344	57.48989105224611	-779.270202636719	-252.9206848144532	59.61972045898439	-733.8187255859376	-291.2103271484376	47.85395431518555	-678.4508056640626	-206.2466125488282	1549.655029296875	-631.8177490234376	-338.6342468261719	681.6777954101564	-569.8212890625001	-41.26903915405274	1206.085693359375	-503.1072387695314	
614	3.065	-334.3490600585938	1523.961059570313	-775.9404907226565	-340.0762939453126	1518.249633789063	-636.2092285156251	-381.8197326660157	1362.703979492188	-692.4382324218751	-498.7828369140626	1102.72216796875	-700.5036621093751	-222.7451934814454	1297.156494140625	-759.6777343750001	-305.1256713867188	1361.159545898438	-829.6463623046877	-187.6736907958985	1328.86376953125	-888.7759399414065	-163.3526458740235	1315.94873046875	-848.1630859375002	-122.1775436401367	1320.318481445313	-891.904479980469	-53.42084884643556	1290.191772460938	-928.7776489257815	-58.99050521850587	1230.97705078125	-920.9522094726565	192.3896484375001	1262.641479492188	-832.7442626953127	192.0852508544922	1274.349609375	-902.7493896484377	262.6126098632813	1277.313842773438	-827.5935668945315	-287.6445312500001	1347.327880859375	-577.4309692382814	-174.25830078125	1277.341064453125	-478.070770263672	-149.4616088867188	1300.694580078125	-512.6125488281251	-105.6238327026367	1269.879516601563	-478.8932189941407	-29.32944869995118	1264.832885742188	-492.7587890625001	198.9617614746094	1268.420043945313	-603.5028686523439	217.9119720458985	1275.390014648438	-537.6166381835939	285.3055419921876	1279.378295898438	-611.9227905273439	-423.8239135742189	881.384216308594	-833.698425292969	-406.244598388672	858.8123168945315	-628.8492431640626	-549.1188964843751	974.0189208984377	-712.4058227539064	-566.3235473632814	946.3718872070315	-740.2945556640626	-560.5675659179689	943.2918701171877	-683.3041992187501	-374.8800659179688	706.3400268554689	-938.4959106445315	-291.3057556152344	686.9136352539064	-943.271667480469	-264.0328063964844	721.7597656250001	-924.4541015625002	-266.4446411132813	630.7467651367189	-940.1392822265627	-202.5782928466797	561.1556396484376	-930.7883300781252	-108.2934112548828	446.2835083007814	-912.7039184570315	-157.129379272461	390.7742614746095	-961.2205810546877	-118.7085189819336	396.4352111816407	-941.8696899414065	-95.92394256591798	318.0444030761719	-911.6909790039065	-132.7784881591797	177.4976043701172	-935.2272949218752	-108.6692199707032	186.7271575927735	-857.0207519531252	-189.4765777587891	139.847152709961	-877.461364746094	24.72467613220216	124.7514724731446	-878.9600830078127	27.84625244140626	123.127670288086	-917.7885742187502	-20.58935356140137	94.52943420410158	-962.4946289062502	-402.1001281738282	696.6251220703126	-556.3998413085939	-322.1974182128907	705.7191772460939	-589.0828247070314	-305.0798339843751	608.0499267578126	-571.9813842773439	-243.9524230957032	470.116180419922	-622.1083374023439	-239.5897064208985	301.2387695312501	-705.0250854492189	-310.8542480468751	232.5955200195313	-653.5021362304689	-281.7632751464844	226.3177337646485	-690.5801391601564	-306.5656738281251	196.8305664062501	-735.9738769531251	-385.9169311523439	125.9277954101563	-693.5347900390626	-371.0153503417969	138.2057189941407	-770.4114990234377	-456.1920776367189	105.7279052734375	-748.6336059570314	-257.4939270019532	57.46871566772462	-779.265319824219	-252.8844146728516	59.538875579834	-733.8051147460939	-291.1884765625001	47.8363151550293	-678.4311523437501	-206.0362854003907	1548.38232421875	-631.8828735351564	-338.7375793457032	681.2634277343751	-569.8419799804689	-41.12593078613282	1205.163818359375	-503.048309326172	
615	3.07	-334.6105957031251	1522.85595703125	-775.7398071289065	-339.9747009277344	1516.906372070313	-636.1504516601564	-382.0904541015626	1361.591674804688	-692.2553710937501	-498.9881591796876	1101.761962890625	-700.4692993164064	-223.1460266113282	1295.766479492188	-759.1069335937501	-304.7211914062501	1360.085205078125	-829.4907226562502	-187.5638122558594	1327.796508789063	-888.6563110351565	-163.24462890625	1314.945190429688	-848.0462646484377	-122.1255874633789	1319.347534179688	-891.7980957031252	-53.23680877685548	1289.245361328125	-928.6892089843752	-58.87008285522462	1230.095947265625	-920.8813476562502	192.7706298828126	1262.093139648438	-832.8737792968752	192.172103881836	1273.587768554688	-902.629577636719	262.6672363281251	1276.5185546875	-827.5771484375002	-287.2173461914063	1346.120727539063	-577.2183227539064	-174.2022094726563	1276.255493164063	-477.9561157226564	-149.3671569824219	1299.820068359375	-512.3119506835939	-105.6703109741211	1268.51513671875	-478.3872375488282	-29.2251148223877	1264.072387695313	-492.8468627929689	198.9283447265626	1267.638916015625	-603.9181518554689	217.9855957031251	1274.723388671875	-537.7542114257814	283.8565063476563	1280.0419921875	-612.6061401367189	-424.0668029785157	880.3218994140627	-833.7183837890627	-406.6749877929689	857.677429199219	-628.8314208984376	-549.5550537109376	972.9766845703127	-712.3931274414064	-566.5216674804689	945.3151855468752	-740.2802734375001	-561.0184326171876	942.2212524414065	-683.3182983398439	-375.1951599121094	705.6599121093751	-938.532409667969	-291.7246093750001	686.5652465820314	-943.4205322265627	-264.2915039062501	721.3513793945314	-924.5789794921877	-266.6493530273438	630.3356323242189	-940.2827148437502	-202.6575775146485	560.9535522460939	-930.9433593750002	-108.1950836181641	446.0370178222657	-912.8190917968752	-157.014633178711	390.6201782226564	-961.4592895507815	-118.6584930419922	396.2670288085939	-941.964294433594	-95.82080078125001	317.8604431152344	-911.880310058594	-132.8160400390625	177.3477478027344	-935.2620849609377	-108.6854705810547	186.6288757324219	-857.165710449219	-189.4075622558594	139.6035919189453	-877.5629882812502	29.80750846862794	121.7360458374024	-879.5708618164065	27.90778160095216	123.0927352905274	-917.8972167968752	-20.3281536102295	94.15933227539064	-962.8511962890627	-402.3093872070314	695.7720947265626	-556.3417968750001	-322.4847412109376	705.2629394531251	-589.0886230468751	-305.1109313964844	607.5860595703126	-571.8750610351564	-243.5870208740235	469.8652954101564	-622.0904541015626	-239.4252166748047	301.0637817382813	-705.0728149414064	-310.6815490722657	232.3965911865235	-653.5234985351564	-281.5846862792969	226.1156616210938	-690.5822753906251	-306.4891967773438	196.7153015136719	-736.0302734375001	-385.9293823242189	125.9207229614258	-693.5893554687501	-370.9289855957032	138.1569213867188	-770.3672485351565	-456.2885742187501	105.7295608520508	-748.6423950195314	-257.5759582519532	57.4488868713379	-779.2702636718752	-252.9240875244141	59.49281311035158	-733.8684692382814	-291.2056884765626	47.85313796997071	-678.4346923828126	-205.8283081054688	1546.99755859375	-631.7245483398439	-338.9425659179688	680.6788940429689	-569.7949218750001	-41.17086791992188	1204.130615234375	-502.995086669922	
